<svg xmlns="http://www.w3.org/2000/svg" viewBox="0 0 960 380" font-family="system-ui, -apple-system, sans-serif">
  <rect width="960" height="380" fill="#fff" rx="12"/>

  <!-- Column Headers -->
  <rect x="30" y="20" width="260" height="30" rx="6" fill="#F1F5F9" stroke="#CBD5E1" stroke-width="1"/>
  <text x="160" y="40" text-anchor="middle" font-size="13" font-weight="700" fill="#334155">Pain Points</text>

  <rect x="350" y="20" width="260" height="30" rx="6" fill="#F1F5F9" stroke="#CBD5E1" stroke-width="1"/>
  <text x="480" y="40" text-anchor="middle" font-size="13" font-weight="700" fill="#334155">Solutions</text>

  <rect x="670" y="20" width="260" height="30" rx="6" fill="#F1F5F9" stroke="#CBD5E1" stroke-width="1"/>
  <text x="800" y="40" text-anchor="middle" font-size="13" font-weight="700" fill="#334155">Outcomes</text>

  <!-- Pain Points -->
  <rect x="30" y="62" width="260" height="28" rx="5" fill="#fff" stroke="#E2E8F0" stroke-width="1"/>
  <text x="160" y="80" text-anchor="middle" font-size="10" fill="#334155">Steep learning curve</text>

  <rect x="30" y="98" width="260" height="28" rx="5" fill="#fff" stroke="#E2E8F0" stroke-width="1"/>
  <text x="160" y="116" text-anchor="middle" font-size="10" fill="#334155">Slow module onboarding</text>

  <rect x="30" y="134" width="260" height="28" rx="5" fill="#fff" stroke="#E2E8F0" stroke-width="1"/>
  <text x="160" y="152" text-anchor="middle" font-size="10" fill="#334155">Error-prone, no self-service</text>

  <rect x="30" y="170" width="260" height="28" rx="5" fill="#fff" stroke="#E2E8F0" stroke-width="1"/>
  <text x="160" y="188" text-anchor="middle" font-size="10" fill="#334155">Compliance blocks at the end</text>

  <rect x="30" y="206" width="260" height="28" rx="5" fill="#fff" stroke="#E2E8F0" stroke-width="1"/>
  <text x="160" y="224" text-anchor="middle" font-size="10" fill="#334155">Collaboration difficulties</text>

  <rect x="30" y="242" width="260" height="28" rx="5" fill="#fff" stroke="#E2E8F0" stroke-width="1"/>
  <text x="160" y="260" text-anchor="middle" font-size="10" fill="#334155">Demos go unread</text>

  <rect x="30" y="278" width="260" height="28" rx="5" fill="#fff" stroke="#E2E8F0" stroke-width="1"/>
  <text x="160" y="296" text-anchor="middle" font-size="10" fill="#334155">Resistance to new tech</text>

  <!-- Solutions -->
  <rect x="350" y="62" width="260" height="28" rx="5" fill="#fff" stroke="#E2E8F0" stroke-width="1"/>
  <text x="480" y="80" text-anchor="middle" font-size="10" fill="#334155">Form + Template</text>

  <rect x="350" y="98" width="260" height="28" rx="5" fill="#fff" stroke="#E2E8F0" stroke-width="1"/>
  <text x="480" y="116" text-anchor="middle" font-size="10" fill="#334155">Demo Library</text>

  <rect x="350" y="134" width="260" height="28" rx="5" fill="#fff" stroke="#E2E8F0" stroke-width="1"/>
  <text x="480" y="152" text-anchor="middle" font-size="10" fill="#334155">AI Resource Generation</text>

  <rect x="350" y="170" width="260" height="28" rx="5" fill="#fff" stroke="#E2E8F0" stroke-width="1"/>
  <text x="480" y="188" text-anchor="middle" font-size="10" fill="#334155">AI Error Analysis</text>

  <rect x="350" y="206" width="260" height="28" rx="5" fill="#fff" stroke="#E2E8F0" stroke-width="1"/>
  <text x="480" y="224" text-anchor="middle" font-size="10" fill="#334155">Version Control + Clone</text>

  <rect x="350" y="242" width="260" height="28" rx="5" fill="#fff" stroke="#E2E8F0" stroke-width="1"/>
  <text x="480" y="260" text-anchor="middle" font-size="10" fill="#334155">Preview / Plan</text>

  <rect x="350" y="278" width="260" height="28" rx="5" fill="#fff" stroke="#E2E8F0" stroke-width="1"/>
  <text x="480" y="296" text-anchor="middle" font-size="10" fill="#334155">Lock Mechanism</text>

  <!-- Outcomes -->
  <rect x="670" y="62" width="260" height="28" rx="5" fill="#fff" stroke="#E2E8F0" stroke-width="1"/>
  <text x="800" y="80" text-anchor="middle" font-size="10" fill="#334155">Quick onboarding</text>

  <rect x="670" y="98" width="260" height="28" rx="5" fill="#fff" stroke="#E2E8F0" stroke-width="1"/>
  <text x="800" y="116" text-anchor="middle" font-size="10" fill="#334155">Native compliance</text>

  <rect x="670" y="134" width="260" height="28" rx="5" fill="#fff" stroke="#E2E8F0" stroke-width="1"/>
  <text x="800" y="152" text-anchor="middle" font-size="10" fill="#334155">Lower error rate</text>

  <rect x="670" y="170" width="260" height="28" rx="5" fill="#fff" stroke="#E2E8F0" stroke-width="1"/>
  <text x="800" y="188" text-anchor="middle" font-size="10" fill="#334155">Less support cost</text>

  <rect x="670" y="206" width="260" height="28" rx="5" fill="#fff" stroke="#E2E8F0" stroke-width="1"/>
  <text x="800" y="224" text-anchor="middle" font-size="10" fill="#334155">Faster learning</text>

  <rect x="670" y="242" width="260" height="28" rx="5" fill="#fff" stroke="#E2E8F0" stroke-width="1"/>
  <text x="800" y="260" text-anchor="middle" font-size="10" fill="#334155">Confidence boost</text>

  <rect x="670" y="278" width="260" height="28" rx="5" fill="#fff" stroke="#E2E8F0" stroke-width="1"/>
  <text x="800" y="296" text-anchor="middle" font-size="10" fill="#334155">Collaboration &amp; audit</text>

  <!-- Arrows -->
  <text x="320" y="190" text-anchor="middle" font-size="24" fill="#94A3B8">&#x2192;</text>
  <text x="640" y="190" text-anchor="middle" font-size="24" fill="#94A3B8">&#x2192;</text>

  <!-- Footer -->
  <text x="480" y="345" text-anchor="middle" font-size="11" fill="#94A3B8">Pain Points → Platform Solutions → Business Outcomes</text>
</svg>
